#!OML:ASF E:/inclinewalkrobotboard/Project1/Captureday1/Session1/subject1.ASF
:FULLY-SPECIFIED
:DEGREES
63
root 0 0 0 1.0393184767736103 -3.6726496372515474 1.8303280114426115
lowerback 11.978642901271494 0.8494791881687099 -0.06281104699572312
upperback -4.230479724505909 1.0787408011301545 -0.542765761460239
thorax -11.341318483717071 0.49378604666942927 -0.7840596543993732
lowerneck -5.779758532683673 1.486405881645908 4.565046879409118
upperneck 18.03424845901517 2.9414711967405625 -8.344339441385792
head 6.5889900157198165 1.0740898599456234 -3.2249122123674847
rclavicle 2.0730867741145076E-16 -2.034702076654189E-15
rhumerus 19.887627973438605 14.348892125018505 -47.73778800437951
rradius 72.23149060613177
rwrist 27.129735909637752
rhand -34.62831010581843 -57.10390055248766
rfingers 7.125020000000035
rthumb -7.781387203335488 -87.15841933794508
lclavicle -1.1068857842867648E-16 -4.504348992259318E-16
lhumerus 21.029563320683458 -12.455439461661877 45.30150893250466
lradius 70.02925360226088
lwrist -22.264734782569636
lhand -44.78266695273423 -70.24345902296994
lfingers 7.125020000000026
lthumb -17.57077266132095 -40.921773158059665
rfemur -24.69678234442173 -2.3147194554502573 17.111227046473935
rtibia 54.508195561554516
rfoot -28.994992896367073 -16.65465578817472
rtoes -18.496601101898108
lfemur -25.899706617981266 2.4394845065065365 -18.063609548147433
ltibia 53.19643000870152
lfoot -30.791701606238256 -3.457026456339635
ltoes -20.87884548446564
64
root 0 0 0 1.039365310077136 -3.6725293268075148 1.830368097098655
lowerback 11.978639610858966 0.8494928206783245 -0.06285374530097335
upperback -4.230511231811242 1.0787507985560176 -0.5427926509606412
thorax -11.341350422117307 0.49379190363855646 -0.7840671690714405
lowerneck -5.780029691021106 1.4864268773499087 4.564999294015705
upperneck 18.034401367172766 2.941483645100577 -8.344207558260717
head 6.58908559546246 1.074097619903516 -3.2248629814194234
rclavicle 1.9899137476880745E-16 -2.0346095178321757E-15
rhumerus 19.88663710461516 14.347854171399597 -47.737774902453054
rradius 72.23072893621213
rwrist 27.130098173622926
rhand -34.62888985572194 -57.10450207740958
rfingers 7.125020000000035
rthumb -7.781929656534779 -87.15905903785138
lclavicle -1.1852246334262863E-16 -4.493455323790269E-16
lhumerus 21.029475239443663 -12.455118375497443 45.301960296967025
lradius 70.02902432624077
lwrist -22.264558523580433
lhand -44.782990652702566 -70.24504510832385
lfingers 7.125020000000026
lthumb -17.571094997314482 -40.9233406101912
rfemur -24.697108320316215 -2.314884085713187 17.111252979449137
rtibia 54.50912419449547
rfoot -28.994654796765595 -16.654601063415257
rtoes -18.496031383878588
lfemur -25.900421456247116 2.4395378111089556 -18.06374371178925
ltibia 53.197621571592016
lfoot -30.79107436015365 -3.457386265426273
ltoes -20.877096252319543
65
root 0 0 0 1.0394386487380018 -3.6723832483565 1.8304076681024912
lowerback 11.978650548921202 0.8495050928658884 -0.06290460989448018
upperback -4.230547123905219 1.0787587251552704 -0.5428210525813246
thorax -11.34139702200317 0.49379657540922545 -0.7840716697428171
lowerneck -5.78036238877767 1.486441826381986 4.564920507173251
upperneck 18.03456877486167 2.941485749210677 -8.344028633136794
head 6.589197031777178 1.074100043271169 -3.2247941195296357
rclavicle 1.9518837509868193E-16 -2.034570521619461E-15
rhumerus 19.88573679130822 14.346966970050431 -47.737981539925336
rradius 72.23007101712408
rwrist 27.130285804272198
rhand -34.62960791679916 -57.105158348605926
rfingers 7.125020000000035
rthumb -7.782618291126653 -87.15971705970593
lclavicle -1.2232000253028854E-16 -4.486544712571012E-16
lhumerus 21.02924413164999 -12.454704009359869 45.30246480084896
lradius 70.02871407314639
lwrist -22.264388881285427
lhand -44.78326330733938 -70.24648591907402
lfingers 7.125020000000026
lthumb -17.571353351909487 -40.92482502827488
rfemur -24.697250440831183 -2.3149244465465895 17.11121873418769
rtibia 54.50937270170104
rfoot -28.99438352614952 -16.654631687002386
rtoes -18.495667337525774
lfemur -25.90125223183632 2.439480749185952 -18.063874428397217
ltibia 53.198186735230664
lfoot -30.790927633429845 -3.4574510046921008
ltoes -20.875275733550517
66
root 0 0 0 1.0394827355009912 -3.672302248589324 1.8304343785683468
lowerback 11.978650861662539 0.849514712390519 -0.06293736748970835
upperback -4.23057261772807 1.0787657995903706 -0.5428394951181815
thorax -11.341425333317916 0.49380067687211876 -0.7840750109747022
lowerneck -5.780566628674556 1.4864555166017366 4.56487800821022
upperneck 18.034684714672164 2.941493260735613 -8.343923914295118
head 6.589269555876698 1.0741046769399472 -3.224754153706947
rclavicle 1.9457435358914089E-16 -2.0350223225976358E-15
rhumerus 19.885399341608277 14.34663098975934 -47.73809232346294
rradius 72.22985002085585
rwrist 27.130366047041143
rhand -34.62998156730552 -57.10558102784263
rfingers 7.125020000000035
rthumb -7.782975815241905 -87.16014184202258
lclavicle -1.228471181974042E-16 -4.490502691124696E-16
lhumerus 21.029106586546398 -12.454471207166725 45.30270745382254
lradius 70.02856809468358
lwrist -22.26434633555715
lhand -44.78339646653904 -70.24729139600215
lfingers 7.125020000000026
lthumb -17.57147994998384 -40.92564885213879
rfemur -24.6972883125049 -2.31493526253816 17.111214089238594
rtibia 54.509429794267845
rfoot -28.994337737458643 -16.654644789474343
rtoes -18.49558291019928
lfemur -25.901573336907315 2.439416230414947 -18.063943029311652
ltibia 53.198293316970805
lfoot -30.790950437822925 -3.4574649505101576
ltoes -20.874548226421496
67
root 0 0 0 1.0393085788933787 -3.672755173588448 1.8302526788062075
lowerback 11.978665447788927 0.8494564708968486 -0.06279020394830984
upperback -4.230451259781436 1.0787209850137953 -0.5427342496561905
thorax -11.341321963091069 0.49377426919074735 -0.7840369402830698
lowerneck -5.779470804129097 1.4863845521224397 4.5650451989924825
upperneck 18.034072334232334 2.94147151607236 -8.344411976273975
head 6.588888343621933 1.0740749824551845 -3.2249262874986644
rclavicle 1.8396710028088427E-16 -2.0264617603363777E-15
rhumerus 19.88694222786293 14.3485706277746 -47.73710956716215
rradius 72.23048589147108
rwrist 27.12905669575921
rhand -34.62547659817946 -57.09925996843669
rfingers 7.125020000000035
rthumb -7.7785422667624395 -87.15353412301806
lclavicle -1.3400466411543652E-16 -4.3867234412006556E-16
lhumerus 21.030545338847027 -12.456757597102056 45.3011938847822
lradius 70.02917588079012
lwrist -22.263860309083416
lhand -44.782118586768306 -70.23651816794509
lfingers 7.125020000000026
lthumb -17.570122436997718 -40.915153769079595
rfemur -24.69589867436997 -2.313688756511586 17.111406622823026
rtibia 54.502589834758254
rfoot -28.995152331823757 -16.654431551643274
rtoes -18.494394969246358
lfemur -25.89763266164373 2.4391244060496753 -18.063292198625486
ltibia 53.19360414998531
lfoot -30.79490250066833 -3.455431304965807
ltoes -20.882509801431368
68
root 0 0 0 1.0393288544566794 -3.672630520983539 1.8303344764728204
lowerback 11.978642554088836 0.8494815874206724 -0.06281898031204244
upperback -4.230486066682765 1.078742590871984 -0.5427702331592861
thorax -11.34132528501693 0.4937870823009587 -0.78406048175585
lowerneck -5.779807489082058 1.4864094631569214 4.565037005129884
upperneck 18.034277066779225 2.941473428544204 -8.344314551054296
head 6.5890076561614235 1.0740911663750892 -3.224902717562897
rclavicle 2.0706999525883254E-16 -2.0347304173573366E-15
rhumerus 19.887544591041426 14.34881107677952 -47.73781453675616
rradius 72.23143328958507
rwrist 27.129752300371866
rhand -34.62839263392083 -57.10398637570168
rfingers 7.125020000000035
rthumb -7.781465953677255 -87.15850612648926
lclavicle -1.1094126938384476E-16 -4.50424149668483E-16
lhumerus 21.0295371060935 -12.455391381786303 45.30156365184431
lradius 70.02922190842489
lwrist -22.26472108898372
lhand -44.78269749425801 -70.24363394170486
lfingers 7.125020000000026
lthumb -17.570801985515097 -40.9219506330266
rfemur -24.696785296102867 -2.3147193120664618 17.11122507792604
rtibia 54.50819369418542
rfoot -28.994979918864757 -16.654656585716065
rtoes -18.496591249390097
lfemur -25.899756767140406 2.439463506754804 -18.06362431879765
ltibia 53.196421269704494
lfoot -30.791713216341 -3.457034425096258
ltoes -20.878718886783595
69
root 0 0 0 1.039371609931096 -3.6725175860049646 1.8303720774700212
lowerback 11.978639354554671 0.8494942997717143 -0.06285861412561092
upperback -4.230515141240298 1.0787519032959925 -0.5427954028555411
thorax -11.341354590690091 0.49379254272698375 -0.7840676860786022
lowerneck -5.7800596973918035 1.4864291027708276 4.564993284207753
upperneck 18.03441897731773 2.9414850532839143 -8.34419232961439
head 6.589096430934217 1.0740984396289115 -3.2248571747843418
rclavicle 1.9886299304188024E-16 -2.0346332681025587E-15
rhumerus 19.886587731698093 14.347805951011303 -47.737790546773354
rradius 72.23069529804104
rwrist 27.130108368972717
rhand -34.62893999103445 -57.104555281949025
rfingers 7.125020000000035
rthumb -7.781977518425062 -87.15911283530677
lclavicle -1.1865777531794388E-16 -4.493480098964826E-16
lhumerus 21.029458852244566 -12.455088708365373 45.30199348236037
lradius 70.02900501515377
lwrist -22.264550643654722
lhand -44.783009096205376 -70.24515187640584
lfingers 7.125020000000026
lthumb -17.571112669179417 -40.9234490834053
rfemur -24.697110290878356 -2.3148840676569864 17.111251745703562
rtibia 54.50912374961112
rfoot -28.994645667324917 -16.6546011588401
rtoes -18.496024316639048
lfemur -25.900450853127698 2.439525023725695 -18.06375273921648
ltibia 53.19761643974924
lfoot -30.791080295943914 -3.457392238954352
ltoes -20.877020038283476
70
root 0 0 0 1.039442504902869 -3.6723760321825014 1.83041011445733
lowerback 11.978650382712807 0.849506003484498 -0.06290760059742495
upperback -4.2305495305161465 1.0787594059322096 -0.5428227450171623
thorax -11.341399583804858 0.49379696913082216 -0.7840719898782109
lowerneck -5.7803808224393185 1.4864432004895822 4.5649168242381215
upperneck 18.034579609947897 2.9414866239778794 -8.344019283386363
head 6.589203693378431 1.0741005511780615 -3.22479055481665
rclavicle 1.9510739584652985E-16 -2.034583435463152E-15
rhumerus 19.885706455276896 14.346937366828527 -47.73799108499183
rradius 72.23005029590624
rwrist 27.130292022081928
rhand -34.629638424549334 -57.10519054753734
rfingers 7.125020000000035
rthumb -7.782647412552006 -87.159749616594
lclavicle -1.224055496595443E-16 -4.486537755843657E-16
lhumerus 21.029234157732276 -12.454685930568742 45.3024851151072
lradius 70.02870222076444
lwrist -22.264383958233502
lhand -44.78327456352336 -70.24655088600797
lfingers 7.125020000000026
lthumb -17.57136413854641 -40.92489100683816
rfemur -24.6972518093113 -2.3149244929704866 17.111217966738508
rtibia 54.5093728407673
rfoot -28.994377553833594 -16.65463162759587
rtoes -18.49566254338835
lfemur -25.901270112564536 2.439473030980797 -18.06387993888431
ltibia 53.19818400905308
lfoot -30.790930821697284 -3.457454926096625
ltoes -20.875229087607522
